<svg id="Layer_1" data-name="Layer 1" xmlns="http://www.w3.org/2000/svg" viewBox="0 0 45.87 45.87">
	<defs>
<style>
  .cls-1,.cls-3,.cls-4,.cls-5{fill:none;}.cls-1,.cls-4,.cls-5{stroke:#111111;}.cls-2{fill:#111111;}.cls-4,.cls-5{stroke-linecap:round;stroke-linejoin:round;}.cls-4{stroke-width:1.5px;}.cls-5{stroke-width:0.3px;}
</style>
	</defs>
	<g id="Group_260" data-name="Group 260">
		<g id="project_mono" data-name="project mono">
			<path id="Path_148" data-name="Path 148" class="cls-1"
				d="M1.73,10.41C1,11.91,1,13.88,1,17.81s0,5.89.77,7.39A7,7,0,0,0,4.8,28.27c1.5.77,3.46.77,7.39.77h5.62c3.93,0,5.89,0,7.39-.77a7,7,0,0,0,3.07-3.07c.77-1.5.77-3.46.77-7.39s0-5.9-.77-7.4A7.06,7.06,0,0,0,25.2,7.34c-1.5-.76-3.46-.76-7.39-.76H12.19c-3.93,0-5.89,0-7.39.76A7.06,7.06,0,0,0,1.73,10.41Z"
				transform="translate(7.94 6.38)" />
			<path id="Path_149" data-name="Path 149" class="cls-2"
				d="M27,3C24.92,1,21.62,1,15,1S5.07,1,3,3A7.15,7.15,0,0,0,1.19,7.5a9,9,0,0,1,2.65-2,9.21,9.21,0,0,1,3.57-.89c1.26-.11,2.81-.11,4.69-.11h5.79c1.89,0,3.44,0,4.7.11a9.26,9.26,0,0,1,3.57.89,9,9,0,0,1,2.64,2A7.16,7.16,0,0,0,27,3Z"
				transform="translate(7.94 6.38)" />
		</g>
		<g id="Group_258" data-name="Group 258">
			<g id="Group_225" data-name="Group 225">
				<path id="Path_60" data-name="Path 60" class="cls-3"
					d="M-7.94-6.38H37.94V39.5H-7.94Z" transform="translate(7.94 6.38)" />
				<path id="Path_63" data-name="Path 63" class="cls-4" d="M12.64,13.11h7.78"
					transform="translate(7.94 6.38)" />
				<path id="Path_65" data-name="Path 65" class="cls-4" d="M12.64,23.09h7.78"
					transform="translate(7.94 6.38)" />
				<path id="Path_66" data-name="Path 66" class="cls-4" d="M12.64,18.1H19"
					transform="translate(7.94 6.38)" />
			</g>
			<g id="Group_226" data-name="Group 226">
				<path id="Path_487" data-name="Path 487" class="cls-3"
					d="M5.65,10.85H9.87v4.21H5.65Z" transform="translate(7.94 6.38)" />
				<path id="Path_488" data-name="Path 488" class="cls-5"
					d="M7.23,12.78l.53.53,1.4-1.41" transform="translate(7.94 6.38)" />
				<path id="Path_489" data-name="Path 489" class="cls-5"
					d="M9.16,13V14a.35.35,0,0,1-.35.35H6.71A.36.36,0,0,1,6.35,14h0V11.9a.36.36,0,0,1,.36-.35H8.29"
					transform="translate(7.94 6.38)" />
			</g>
			<g id="Group_227" data-name="Group 227">
				<path id="Path_490" data-name="Path 490" class="cls-3" d="M5.84,16.2H9.68V20H5.84Z"
					transform="translate(7.94 6.38)" />
				<path id="Path_491" data-name="Path 491" class="cls-5"
					d="M6.32,17a.32.32,0,0,1,.32-.32H8.88A.32.32,0,0,1,9.2,17h0v2.23a.32.32,0,0,1-.32.32H6.64a.32.32,0,0,1-.32-.32h0Z"
					transform="translate(7.94 6.38)" />
			</g>
			<g id="Group_228" data-name="Group 228">
				<path id="Path_490-2" data-name="Path 490-2" class="cls-3"
					d="M5.92,21.17H9.76V25H5.92Z" transform="translate(7.94 6.38)" />
				<path id="Path_491-2" data-name="Path 491-2" class="cls-5"
					d="M6.4,22a.33.33,0,0,1,.32-.32H9a.33.33,0,0,1,.32.32h0v2.24a.33.33,0,0,1-.32.32H6.72a.33.33,0,0,1-.32-.32h0Z"
					transform="translate(7.94 6.38)" />
			</g>
		</g>
	</g>
</svg>